<?xml version="1.0" encoding="UTF-8" standalone="no"?>
<!-- Created with Inkscape (http://www.inkscape.org/) -->

<svg
   version="1.1"
   id="svg1"
   width="167.6655"
   height="197.82101"
   viewBox="0 0 167.6655 197.82101"
   sodipodi:docname="Logo (Kopia).svg"
   inkscape:version="1.4.3 (0d15f75042, 2025-12-25)"
   xmlns:inkscape="http://www.inkscape.org/namespaces/inkscape"
   xmlns:sodipodi="http://sodipodi.sourceforge.net/DTD/sodipodi-0.dtd"
   xmlns="http://www.w3.org/2000/svg"
   xmlns:svg="http://www.w3.org/2000/svg">
  <defs
     id="defs1" />
  <sodipodi:namedview
     id="namedview1"
     pagecolor="#ffffff"
     bordercolor="#000000"
     borderopacity="0.25"
     inkscape:showpageshadow="2"
     inkscape:pageopacity="0.0"
     inkscape:pagecheckerboard="0"
     inkscape:deskcolor="#d1d1d1"
     inkscape:zoom="0.53309222"
     inkscape:cx="1811.1313"
     inkscape:cy="763.47016"
     inkscape:window-width="1692"
     inkscape:window-height="1059"
     inkscape:window-x="0"
     inkscape:window-y="0"
     inkscape:window-maximized="1"
     inkscape:current-layer="g1">
    <inkscape:page
       x="0"
       y="0"
       width="167.6655"
       height="197.82101"
       id="page1"
       margin="0"
       bleed="0" />
  </sodipodi:namedview>
  <g
     inkscape:groupmode="layer"
     inkscape:label="Image"
     id="g1"
     transform="translate(-16.167246,-1.0894885)">
    <path
       style="fill:#000000;stroke-width:0.198558"
       d="m 16.180361,169.92082 v -28.99006 l 83.789857,0.004 83.789832,0.004 0.0515,20.00112 c 0.0284,11.00061 0.0282,24.04423 -1.6e-4,28.98586 l -0.0517,8.98477 H 99.969928 16.180236 Z m 149.069609,-0.0491 0.0515,-10.47397 H 99.973885 34.64637 v 10.39123 c 0,5.71519 0.05976,10.45093 0.132671,10.52391 0.07305,0.0729 29.447237,0.11012 65.276139,0.0827 l 65.14345,-0.0499 z M 16.231285,108.4178 l 0.06419,-27.550006 0.347989,-2.08486 c 2.227906,-13.34756 8.868878,-23.775289 19.838913,-31.151279 4.604795,-3.096148 12.203572,-6.26981 16.476095,-6.881301 l 0.938257,-0.134331 0.09601,-0.623499 c 0.428615,-2.78323 0.604934,-3.677052 1.112612,-5.639755 C 59.940709,15.658798 75.42563,3.0252974 95.581695,1.3298045 l 2.85694,-0.240316 3.695495,0.1160699 3.69549,0.11607 2.38983,0.4016657 c 20.37282,3.4240911 34.82134,17.8612409 37.75849,37.7288469 l 0.15907,1.075937 2.58126,0.623623 c 20.96802,5.065893 35.13604,23.228101 35.08637,44.977838 -0.004,1.911115 -0.0153,13.906531 -0.0243,26.656481 l -0.0165,23.18171 h -9.22753 -9.22754 l -0.0625,-27.05361 -0.0625,-27.053603 -0.44387,-1.938327 C 162.33909,69.437975 154.8068,61.843002 143.85363,58.862121 l -2.28343,-0.621437 -16.12035,-0.06267 -16.12034,-0.06267 -0.0787,16.240856 -0.0787,16.240855 -0.33297,2.084708 C 104.84491,117.68797 85.881734,132.33405 57.431039,132.38641 l -3.921532,0.007 -0.01826,-14.6437 c -0.0097,-8.05403 -0.03002,-23.159117 -0.04441,-33.56687 l -0.02615,-18.923178 0.29261,-0.188991 c 0.377262,-0.243664 2.513751,-0.917478 4.16449,-1.313417 l 1.290631,-0.30957 6.40352,-0.0949 6.403506,-0.0949 v 24.330239 24.330257 l 0.185061,0.11441 c 0.604809,0.37379 4.934979,-1.86678 7.826559,-4.04971 l 1.885909,-1.42372 1.525344,-1.72667 c 3.657919,-4.14071 5.844198,-8.530259 6.860896,-13.775058 l 0.380679,-1.9641 V 73.612924 58.132389 H 75.548133 60.45637 l -1.991298,0.299098 C 46.59564,60.214246 37.720965,68.729243 35.081487,80.867351 l -0.302238,1.389907 -0.07318,26.855052 -0.07318,26.85505 H 25.400064 16.167246 Z M 126.97605,39.442264 c 0,-0.460919 -1.26598,-3.901279 -1.9997,-5.434288 -4.23027,-8.838525 -13.88227,-14.594059 -24.47417,-14.594059 h -1.900923 l -2.82678,0.408029 -2.826781,0.40803 -2.183969,0.70602 c -8.706519,2.814634 -14.373513,8.340657 -17.197499,16.769687 -0.328966,0.981891 -0.598113,1.824843 -0.598113,1.873236 0,0.04842 12.151791,0.08799 27.003971,0.08799 h 27.003964 z m 7.74379,92.739876 c -4.80219,-0.33149 -10.70014,-1.64988 -14.93774,-3.3391 -5.15771,-2.05598 -11.50164,-6.2152 -15.11816,-9.91176 l -1.16561,-1.19141 0.15919,-0.26793 c 0.0876,-0.14735 0.62172,-0.89764 1.18698,-1.66729 2.7699,-3.77147 5.0466,-8.2302 6.70205,-13.12543 l 1.0845,-3.206949 1.25372,1.914849 1.25372,1.91485 1.79868,1.86011 c 3.09817,3.20396 9.01705,6.97869 10.94274,6.97869 0.0553,0 0.0887,-10.96787 0.0742,-24.373054 l -0.0264,-24.37307 6.32489,0.01245 6.3249,0.01245 1.78702,0.416524 c 0.98287,0.229096 2.30106,0.609761 2.92932,0.845927 l 1.14228,0.429389 -0.0502,33.591556 -0.0502,33.591568 -4.66614,0.0227 c -2.56636,0.0125 -5.69367,-0.0483 -6.94955,-0.13502 z"
       id="path1" />
  </g>
</svg>
